<svg width="229" height="82" viewBox="0 0 229 82" fill="none" xmlns="http://www.w3.org/2000/svg">
<path d="M6.08 60C5.61067 60 5.22667 59.8507 4.928 59.552C4.62933 59.2533 4.48 58.8693 4.48 58.4V16.8C4.48 16.3307 4.62933 15.9467 4.928 15.648C5.22667 15.3493 5.61067 15.2 6.08 15.2H22.72C26.9013 15.2 30.464 15.8827 33.408 17.248C36.352 18.5707 38.6133 20.5333 40.192 23.136C41.7707 25.696 42.624 28.8747 42.752 32.672C42.7947 34.5493 42.816 36.192 42.816 37.6C42.816 39.008 42.7947 40.6293 42.752 42.464C42.5813 46.432 41.728 49.7173 40.192 52.32C38.6987 54.9227 36.5013 56.864 33.6 58.144C30.7413 59.3813 27.2213 60 23.04 60H6.08ZM15.936 50.784H22.72C24.5547 50.784 26.0693 50.5067 27.264 49.952C28.5013 49.3547 29.4187 48.4373 30.016 47.2C30.656 45.9627 30.9973 44.3413 31.04 42.336C31.1253 41.0987 31.168 39.9893 31.168 39.008C31.2107 38.0267 31.2107 37.0453 31.168 36.064C31.168 35.0827 31.1253 33.9947 31.04 32.8C30.9547 29.8987 30.1867 27.7867 28.736 26.464C27.328 25.0987 25.216 24.416 22.4 24.416H15.936V50.784ZM58.9325 60C58.4632 60 58.0792 59.8507 57.7805 59.552C57.4818 59.2533 57.3325 58.8693 57.3325 58.4V16.8C57.3325 16.3307 57.4818 15.9467 57.7805 15.648C58.0792 15.3493 58.4632 15.2 58.9325 15.2H67.5085C67.9778 15.2 68.3618 15.3493 68.6605 15.648C68.9592 15.9467 69.1085 16.3307 69.1085 16.8V58.4C69.1085 58.8693 68.9592 59.2533 68.6605 59.552C68.3618 59.8507 67.9778 60 67.5085 60H58.9325ZM82.7545 60C82.3705 60 82.0292 59.872 81.7305 59.616C81.4745 59.3173 81.3465 58.9973 81.3465 58.656C81.3465 58.528 81.3678 58.4 81.4105 58.272C81.4532 58.144 81.5172 58.016 81.6025 57.888L95.5545 37.152L82.6265 17.312C82.4985 17.056 82.4345 16.8 82.4345 16.544C82.4345 16.2027 82.5625 15.904 82.8185 15.648C83.0745 15.3493 83.3945 15.2 83.7785 15.2H93.0585C93.6985 15.2 94.1892 15.3707 94.5305 15.712C94.8718 16.0107 95.1065 16.288 95.2345 16.544L102.915 28.192L110.659 16.544C110.829 16.288 111.085 16.0107 111.427 15.712C111.768 15.3707 112.259 15.2 112.899 15.2H121.667C122.051 15.2 122.371 15.3493 122.627 15.648C122.925 15.904 123.075 16.2027 123.075 16.544C123.075 16.8427 122.989 17.0987 122.819 17.312L109.827 37.088L123.907 57.888C123.992 58.016 124.035 58.144 124.035 58.272C124.077 58.4 124.099 58.528 124.099 58.656C124.099 58.9973 123.971 59.3173 123.715 59.616C123.459 59.872 123.139 60 122.755 60H113.219C112.579 60 112.067 59.8507 111.683 59.552C111.341 59.2107 111.107 58.9333 110.979 58.72L102.467 46.432L94.1465 58.72C94.0185 58.9333 93.7838 59.2107 93.4425 59.552C93.1012 59.8507 92.6105 60 91.9705 60H82.7545ZM152.654 60.64C148.729 60.64 145.315 60 142.414 58.72C139.513 57.44 137.251 55.52 135.63 52.96C134.009 50.3573 133.113 47.1147 132.942 43.232C132.899 41.3973 132.878 39.5627 132.878 37.728C132.878 35.8933 132.899 34.0373 132.942 32.16C133.113 28.32 134.009 25.0987 135.63 22.496C137.294 19.8507 139.577 17.8667 142.478 16.544C145.379 15.2213 148.771 14.56 152.654 14.56C156.494 14.56 159.865 15.2213 162.766 16.544C165.71 17.8667 168.014 19.8507 169.678 22.496C171.342 25.0987 172.238 28.32 172.366 32.16C172.451 34.0373 172.494 35.8933 172.494 37.728C172.494 39.5627 172.451 41.3973 172.366 43.232C172.195 47.1147 171.299 50.3573 169.678 52.96C168.057 55.52 165.795 57.44 162.894 58.72C159.993 60 156.579 60.64 152.654 60.64ZM152.654 51.424C154.915 51.424 156.75 50.7413 158.158 49.376C159.609 48.0107 160.377 45.8347 160.462 42.848C160.547 40.9707 160.59 39.2 160.59 37.536C160.59 35.872 160.547 34.144 160.462 32.352C160.377 30.3467 159.993 28.7253 159.31 27.488C158.67 26.208 157.774 25.2693 156.622 24.672C155.47 24.0747 154.147 23.776 152.654 23.776C151.203 23.776 149.902 24.0747 148.75 24.672C147.598 25.2693 146.681 26.208 145.998 27.488C145.315 28.7253 144.931 30.3467 144.846 32.352C144.803 34.144 144.782 35.872 144.782 37.536C144.782 39.2 144.803 40.9707 144.846 42.848C144.974 45.8347 145.742 48.0107 147.15 49.376C148.558 50.7413 150.393 51.424 152.654 51.424ZM188.553 60C188.083 60 187.699 59.8507 187.401 59.552C187.102 59.2533 186.953 58.8693 186.953 58.4V16.8C186.953 16.3307 187.102 15.9467 187.401 15.648C187.699 15.3493 188.083 15.2 188.553 15.2H195.337C196.062 15.2 196.574 15.3707 196.873 15.712C197.214 16.0107 197.427 16.2453 197.513 16.416L213.129 41.056V16.8C213.129 16.3307 213.278 15.9467 213.577 15.648C213.875 15.3493 214.259 15.2 214.729 15.2H222.409C222.878 15.2 223.262 15.3493 223.561 15.648C223.859 15.9467 224.009 16.3307 224.009 16.8V58.4C224.009 58.8267 223.859 59.2107 223.561 59.552C223.262 59.8507 222.878 60 222.409 60H215.561C214.878 60 214.366 59.8293 214.025 59.488C213.726 59.1467 213.534 58.912 213.449 58.784L197.833 35.104V58.4C197.833 58.8693 197.683 59.2533 197.385 59.552C197.086 59.8507 196.702 60 196.233 60H188.553Z" fill="#335EF8"/>
<path d="M9.136 81.16C8.144 81.16 7.312 81.016 6.64 80.728C5.97867 80.4293 5.472 80.0453 5.12 79.576C4.77867 79.096 4.59733 78.5947 4.576 78.072C4.576 77.976 4.608 77.896 4.672 77.832C4.736 77.768 4.816 77.736 4.912 77.736H6.336C6.47467 77.736 6.576 77.768 6.64 77.832C6.71467 77.8853 6.77867 77.9547 6.832 78.04C6.896 78.2427 7.01867 78.4453 7.2 78.648C7.38133 78.84 7.62667 79 7.936 79.128C8.256 79.256 8.656 79.32 9.136 79.32C9.904 79.32 10.4747 79.192 10.848 78.936C11.232 78.68 11.424 78.3333 11.424 77.896C11.424 77.5867 11.3227 77.3413 11.12 77.16C10.9173 76.968 10.6027 76.7973 10.176 76.648C9.76 76.488 9.20533 76.3227 8.512 76.152C7.712 75.96 7.04 75.7307 6.496 75.464C5.96267 75.1867 5.55733 74.84 5.28 74.424C5.01333 74.008 4.88 73.48 4.88 72.84C4.88 72.2213 5.04533 71.672 5.376 71.192C5.71733 70.712 6.19733 70.3333 6.816 70.056C7.44533 69.7787 8.192 69.64 9.056 69.64C9.74933 69.64 10.3627 69.736 10.896 69.928C11.4293 70.1093 11.872 70.3547 12.224 70.664C12.576 70.9627 12.8427 71.288 13.024 71.64C13.216 71.9813 13.3173 72.3173 13.328 72.648C13.328 72.7333 13.296 72.8133 13.232 72.888C13.1787 72.952 13.0987 72.984 12.992 72.984H11.504C11.4187 72.984 11.3333 72.9627 11.248 72.92C11.1627 72.8773 11.0933 72.7973 11.04 72.68C10.976 72.3493 10.768 72.0667 10.416 71.832C10.064 71.5973 9.61067 71.48 9.056 71.48C8.48 71.48 8.016 71.5867 7.664 71.8C7.312 72.0133 7.136 72.344 7.136 72.792C7.136 73.0907 7.22133 73.3413 7.392 73.544C7.57333 73.736 7.856 73.9067 8.24 74.056C8.63467 74.2053 9.152 74.3653 9.792 74.536C10.6987 74.7387 11.44 74.9733 12.016 75.24C12.592 75.5067 13.0133 75.848 13.28 76.264C13.5467 76.6693 13.68 77.1867 13.68 77.816C13.68 78.52 13.488 79.1227 13.104 79.624C12.7307 80.1147 12.2027 80.4933 11.52 80.76C10.8373 81.0267 10.0427 81.16 9.136 81.16ZM17.4976 81C17.391 81 17.3003 80.968 17.2256 80.904C17.151 80.8293 17.1136 80.7333 17.1136 80.616V70.2C17.1136 70.0827 17.151 69.9867 17.2256 69.912C17.3003 69.8373 17.391 69.8 17.4976 69.8H18.9536C19.071 69.8 19.1616 69.8373 19.2256 69.912C19.3003 69.9867 19.3376 70.0827 19.3376 70.2V74.328H24.0576V70.2C24.0576 70.0827 24.095 69.9867 24.1696 69.912C24.2443 69.8373 24.335 69.8 24.4416 69.8H25.8816C25.999 69.8 26.095 69.8373 26.1696 69.912C26.2443 69.9867 26.2816 70.0827 26.2816 70.2V80.616C26.2816 80.7227 26.2443 80.8133 26.1696 80.888C26.095 80.9627 25.999 81 25.8816 81H24.4416C24.335 81 24.2443 80.9627 24.1696 80.888C24.095 80.8133 24.0576 80.7227 24.0576 80.616V76.328H19.3376V80.616C19.3376 80.7227 19.3003 80.8133 19.2256 80.888C19.1616 80.9627 19.071 81 18.9536 81H17.4976ZM34.6739 81.16C33.7245 81.16 32.9085 81.0053 32.2259 80.696C31.5432 80.376 31.0099 79.8907 30.6259 79.24C30.2419 78.5787 30.0339 77.7573 30.0019 76.776C29.9912 76.3173 29.9859 75.864 29.9859 75.416C29.9859 74.968 29.9912 74.5093 30.0019 74.04C30.0339 73.0693 30.2472 72.2587 30.6419 71.608C31.0365 70.9573 31.5752 70.4667 32.2579 70.136C32.9512 69.8053 33.7565 69.64 34.6739 69.64C35.5912 69.64 36.3965 69.8053 37.0899 70.136C37.7832 70.4667 38.3272 70.9573 38.7219 71.608C39.1165 72.2587 39.3299 73.0693 39.3619 74.04C39.3832 74.5093 39.3939 74.968 39.3939 75.416C39.3939 75.864 39.3832 76.3173 39.3619 76.776C39.3299 77.7573 39.1219 78.5787 38.7379 79.24C38.3539 79.8907 37.8152 80.376 37.1219 80.696C36.4392 81.0053 35.6232 81.16 34.6739 81.16ZM34.6739 79.32C35.3672 79.32 35.9325 79.1173 36.3699 78.712C36.8072 78.296 37.0419 77.624 37.0739 76.696C37.0952 76.2267 37.1059 75.7947 37.1059 75.4C37.1059 74.9947 37.0952 74.5627 37.0739 74.104C37.0525 73.4853 36.9352 72.984 36.7219 72.6C36.5192 72.2053 36.2419 71.9227 35.8899 71.752C35.5379 71.5707 35.1325 71.48 34.6739 71.48C34.2259 71.48 33.8259 71.5707 33.4739 71.752C33.1219 71.9227 32.8392 72.2053 32.6259 72.6C32.4232 72.984 32.3112 73.4853 32.2899 74.104C32.2792 74.5627 32.2739 74.9947 32.2739 75.4C32.2739 75.7947 32.2792 76.2267 32.2899 76.696C32.3219 77.624 32.5565 78.296 32.9939 78.712C33.4312 79.1173 33.9912 79.32 34.6739 79.32ZM43.4789 81C43.3722 81 43.2815 80.9627 43.2069 80.888C43.1322 80.8133 43.0949 80.7227 43.0949 80.616V70.2C43.0949 70.0827 43.1322 69.9867 43.2069 69.912C43.2815 69.8373 43.3722 69.8 43.4789 69.8H50.5189C50.6362 69.8 50.7322 69.8373 50.8069 69.912C50.8815 69.9867 50.9189 70.0827 50.9189 70.2V71.256C50.9189 71.3627 50.8815 71.4533 50.8069 71.528C50.7322 71.6027 50.6362 71.64 50.5189 71.64H45.2549V74.472H50.1669C50.2842 74.472 50.3802 74.5093 50.4549 74.584C50.5295 74.648 50.5669 74.7387 50.5669 74.856V75.848C50.5669 75.9653 50.5295 76.0613 50.4549 76.136C50.3802 76.2 50.2842 76.232 50.1669 76.232H45.2549V79.16H50.6469C50.7642 79.16 50.8602 79.1973 50.9349 79.272C51.0095 79.3467 51.0469 79.4427 51.0469 79.56V80.616C51.0469 80.7227 51.0095 80.8133 50.9349 80.888C50.8602 80.9627 50.7642 81 50.6469 81H43.4789ZM58.536 81.16C57.544 81.16 56.712 81.016 56.04 80.728C55.3787 80.4293 54.872 80.0453 54.52 79.576C54.1787 79.096 53.9973 78.5947 53.976 78.072C53.976 77.976 54.008 77.896 54.072 77.832C54.136 77.768 54.216 77.736 54.312 77.736H55.736C55.8747 77.736 55.976 77.768 56.04 77.832C56.1147 77.8853 56.1787 77.9547 56.232 78.04C56.296 78.2427 56.4187 78.4453 56.6 78.648C56.7813 78.84 57.0267 79 57.336 79.128C57.656 79.256 58.056 79.32 58.536 79.32C59.304 79.32 59.8747 79.192 60.248 78.936C60.632 78.68 60.824 78.3333 60.824 77.896C60.824 77.5867 60.7227 77.3413 60.52 77.16C60.3173 76.968 60.0027 76.7973 59.576 76.648C59.16 76.488 58.6053 76.3227 57.912 76.152C57.112 75.96 56.44 75.7307 55.896 75.464C55.3627 75.1867 54.9573 74.84 54.68 74.424C54.4133 74.008 54.28 73.48 54.28 72.84C54.28 72.2213 54.4453 71.672 54.776 71.192C55.1173 70.712 55.5973 70.3333 56.216 70.056C56.8453 69.7787 57.592 69.64 58.456 69.64C59.1493 69.64 59.7627 69.736 60.296 69.928C60.8293 70.1093 61.272 70.3547 61.624 70.664C61.976 70.9627 62.2427 71.288 62.424 71.64C62.616 71.9813 62.7173 72.3173 62.728 72.648C62.728 72.7333 62.696 72.8133 62.632 72.888C62.5787 72.952 62.4987 72.984 62.392 72.984H60.904C60.8187 72.984 60.7333 72.9627 60.648 72.92C60.5627 72.8773 60.4933 72.7973 60.44 72.68C60.376 72.3493 60.168 72.0667 59.816 71.832C59.464 71.5973 59.0107 71.48 58.456 71.48C57.88 71.48 57.416 71.5867 57.064 71.8C56.712 72.0133 56.536 72.344 56.536 72.792C56.536 73.0907 56.6213 73.3413 56.792 73.544C56.9733 73.736 57.256 73.9067 57.64 74.056C58.0347 74.2053 58.552 74.3653 59.192 74.536C60.0987 74.7387 60.84 74.9733 61.416 75.24C61.992 75.5067 62.4133 75.848 62.68 76.264C62.9467 76.6693 63.08 77.1867 63.08 77.816C63.08 78.52 62.888 79.1227 62.504 79.624C62.1307 80.1147 61.6027 80.4933 60.92 80.76C60.2373 81.0267 59.4427 81.16 58.536 81.16ZM75.2099 81.16C74.4312 81.16 73.7485 81.032 73.1619 80.776C72.5752 80.5093 72.1219 80.136 71.8019 79.656C71.4819 79.1653 71.3219 78.5947 71.3219 77.944C71.3219 77.4747 71.4179 77.0587 71.6099 76.696C71.8019 76.3227 72.0632 75.992 72.3939 75.704C72.7352 75.4053 73.1139 75.1333 73.5299 74.888C73.0712 74.408 72.7459 73.9707 72.5539 73.576C72.3619 73.1813 72.2659 72.7813 72.2659 72.376C72.2659 71.8853 72.3939 71.4373 72.6499 71.032C72.9059 70.616 73.2739 70.28 73.7539 70.024C74.2339 69.768 74.8205 69.64 75.5139 69.64C76.1645 69.64 76.7192 69.7627 77.1779 70.008C77.6472 70.2533 78.0099 70.584 78.2659 71C78.5219 71.4053 78.6499 71.8533 78.6499 72.344C78.6499 72.792 78.5432 73.192 78.3299 73.544C78.1272 73.8853 77.8499 74.1947 77.4979 74.472C77.1459 74.7493 76.7512 75.0107 76.3139 75.256L78.6179 77.544C78.7459 77.3307 78.8899 77.0533 79.0499 76.712C79.2099 76.36 79.3485 75.928 79.4659 75.416C79.4979 75.2347 79.6099 75.144 79.8019 75.144H80.9699C81.0659 75.144 81.1405 75.176 81.1939 75.24C81.2579 75.2933 81.2899 75.368 81.2899 75.464C81.2792 75.688 81.2312 75.9333 81.1459 76.2C81.0712 76.4667 80.9645 76.7493 80.8259 77.048C80.6979 77.3467 80.5485 77.64 80.3779 77.928C80.2072 78.216 80.0259 78.488 79.8339 78.744L81.5299 80.472C81.6152 80.5467 81.6579 80.6267 81.6579 80.712C81.6579 80.7973 81.6312 80.8667 81.5779 80.92C81.5245 80.9733 81.4499 81 81.3539 81H79.8179C79.7112 81 79.6259 80.984 79.5619 80.952C79.4979 80.92 79.4392 80.8827 79.3859 80.84L78.5059 79.976C78.0792 80.3493 77.5939 80.6427 77.0499 80.856C76.5165 81.0587 75.9032 81.16 75.2099 81.16ZM75.2099 79.512C75.5832 79.512 75.9459 79.4427 76.2979 79.304C76.6499 79.1653 76.9752 78.9573 77.2739 78.68L74.7139 76.152C74.3405 76.3547 74.0152 76.5947 73.7379 76.872C73.4712 77.1493 73.3379 77.4853 73.3379 77.88C73.3379 78.2213 73.4232 78.5147 73.5939 78.76C73.7752 78.9947 74.0099 79.1813 74.2979 79.32C74.5859 79.448 74.8899 79.512 75.2099 79.512ZM75.1939 74.072C75.4819 73.912 75.7485 73.752 75.9939 73.592C76.2392 73.432 76.4312 73.256 76.5699 73.064C76.7192 72.8613 76.7939 72.6373 76.7939 72.392C76.7939 72.0293 76.6712 71.7413 76.4259 71.528C76.1805 71.3147 75.8712 71.208 75.4979 71.208C75.1565 71.208 74.8525 71.3147 74.5859 71.528C74.3299 71.7307 74.2019 72.0187 74.2019 72.392C74.2019 72.552 74.2285 72.712 74.2819 72.872C74.3459 73.032 74.4472 73.208 74.5859 73.4C74.7352 73.5813 74.9379 73.8053 75.1939 74.072ZM89.0006 81C88.9153 81 88.8353 80.968 88.7606 80.904C88.6966 80.84 88.6646 80.76 88.6646 80.664C88.6646 80.6213 88.6753 80.5733 88.6966 80.52L92.5526 70.2C92.5846 70.0933 92.6433 70.0027 92.7286 69.928C92.8246 69.8427 92.9526 69.8 93.1126 69.8H94.8566C95.0166 69.8 95.1393 69.8427 95.2246 69.928C95.31 70.0027 95.374 70.0933 95.4166 70.2L99.2726 80.52C99.2833 80.5733 99.2886 80.6213 99.2886 80.664C99.2886 80.76 99.2566 80.84 99.1926 80.904C99.1286 80.968 99.054 81 98.9686 81H97.5766C97.4273 81 97.3153 80.968 97.2406 80.904C97.1766 80.8293 97.134 80.76 97.1126 80.696L96.3606 78.744H91.6086L90.8566 80.696C90.8353 80.76 90.7873 80.8293 90.7126 80.904C90.6486 80.968 90.542 81 90.3926 81H89.0006ZM92.1686 76.904H95.8006L93.9766 71.96L92.1686 76.904ZM102.766 81C102.66 81 102.569 80.9627 102.494 80.888C102.42 80.8133 102.382 80.7227 102.382 80.616V70.2C102.382 70.0827 102.42 69.9867 102.494 69.912C102.569 69.8373 102.66 69.8 102.766 69.8H107.054C107.886 69.8 108.612 69.9333 109.23 70.2C109.849 70.456 110.329 70.8507 110.67 71.384C111.012 71.9067 111.182 72.5627 111.182 73.352C111.182 74.152 111.012 74.8133 110.67 75.336C110.329 75.848 109.849 76.232 109.23 76.488C108.612 76.744 107.886 76.872 107.054 76.872H104.67V80.616C104.67 80.7227 104.633 80.8133 104.558 80.888C104.494 80.9627 104.404 81 104.286 81H102.766ZM104.638 75.096H106.974C107.593 75.096 108.068 74.952 108.398 74.664C108.729 74.3653 108.894 73.928 108.894 73.352C108.894 72.8187 108.74 72.392 108.43 72.072C108.121 71.7413 107.636 71.576 106.974 71.576H104.638V75.096ZM114.913 81C114.807 81 114.716 80.9627 114.641 80.888C114.567 80.8133 114.529 80.7227 114.529 80.616V70.2C114.529 70.0827 114.567 69.9867 114.641 69.912C114.716 69.8373 114.807 69.8 114.913 69.8H119.201C120.033 69.8 120.759 69.9333 121.377 70.2C121.996 70.456 122.476 70.8507 122.817 71.384C123.159 71.9067 123.329 72.5627 123.329 73.352C123.329 74.152 123.159 74.8133 122.817 75.336C122.476 75.848 121.996 76.232 121.377 76.488C120.759 76.744 120.033 76.872 119.201 76.872H116.817V80.616C116.817 80.7227 116.78 80.8133 116.705 80.888C116.641 80.9627 116.551 81 116.433 81H114.913ZM116.785 75.096H119.121C119.74 75.096 120.215 74.952 120.545 74.664C120.876 74.3653 121.041 73.928 121.041 73.352C121.041 72.8187 120.887 72.392 120.577 72.072C120.268 71.7413 119.783 71.576 119.121 71.576H116.785V75.096ZM125.285 81C125.2 81 125.12 80.968 125.045 80.904C124.981 80.84 124.949 80.76 124.949 80.664C124.949 80.6213 124.96 80.5733 124.981 80.52L128.837 70.2C128.869 70.0933 128.928 70.0027 129.013 69.928C129.109 69.8427 129.237 69.8 129.397 69.8H131.141C131.301 69.8 131.424 69.8427 131.509 69.928C131.594 70.0027 131.658 70.0933 131.701 70.2L135.557 80.52C135.568 80.5733 135.573 80.6213 135.573 80.664C135.573 80.76 135.541 80.84 135.477 80.904C135.413 80.968 135.338 81 135.253 81H133.861C133.712 81 133.6 80.968 133.525 80.904C133.461 80.8293 133.418 80.76 133.397 80.696L132.645 78.744H127.893L127.141 80.696C127.12 80.76 127.072 80.8293 126.997 80.904C126.933 80.968 126.826 81 126.677 81H125.285ZM128.453 76.904H132.085L130.261 71.96L128.453 76.904ZM139.051 81C138.944 81 138.853 80.9627 138.779 80.888C138.704 80.8133 138.667 80.7227 138.667 80.616V70.2C138.667 70.0827 138.704 69.9867 138.779 69.912C138.853 69.8373 138.944 69.8 139.051 69.8H143.195C144.485 69.8 145.504 70.0987 146.251 70.696C146.997 71.2933 147.371 72.1627 147.371 73.304C147.371 74.0933 147.173 74.7493 146.779 75.272C146.395 75.7947 145.877 76.1733 145.227 76.408L147.563 80.488C147.595 80.552 147.611 80.6107 147.611 80.664C147.611 80.76 147.573 80.84 147.499 80.904C147.435 80.968 147.36 81 147.275 81H145.819C145.637 81 145.499 80.952 145.403 80.856C145.307 80.76 145.232 80.664 145.179 80.568L143.115 76.776H140.891V80.616C140.891 80.7227 140.853 80.8133 140.779 80.888C140.715 80.9627 140.624 81 140.507 81H139.051ZM140.891 74.968H143.147C143.797 74.968 144.283 74.824 144.603 74.536C144.923 74.2373 145.083 73.8213 145.083 73.288C145.083 72.7547 144.923 72.3387 144.603 72.04C144.293 71.7307 143.808 71.576 143.147 71.576H140.891V74.968ZM151.416 81C151.31 81 151.219 80.9627 151.144 80.888C151.07 80.8133 151.032 80.7227 151.032 80.616V70.2C151.032 70.0827 151.07 69.9867 151.144 69.912C151.219 69.8373 151.31 69.8 151.416 69.8H158.456C158.574 69.8 158.67 69.8373 158.744 69.912C158.819 69.9867 158.856 70.0827 158.856 70.2V71.256C158.856 71.3627 158.819 71.4533 158.744 71.528C158.67 71.6027 158.574 71.64 158.456 71.64H153.192V74.472H158.104C158.222 74.472 158.318 74.5093 158.392 74.584C158.467 74.648 158.504 74.7387 158.504 74.856V75.848C158.504 75.9653 158.467 76.0613 158.392 76.136C158.318 76.2 158.222 76.232 158.104 76.232H153.192V79.16H158.584C158.702 79.16 158.798 79.1973 158.872 79.272C158.947 79.3467 158.984 79.4427 158.984 79.56V80.616C158.984 80.7227 158.947 80.8133 158.872 80.888C158.798 80.9627 158.702 81 158.584 81H151.416ZM162.969 81C162.863 81 162.772 80.9627 162.697 80.888C162.623 80.8133 162.585 80.7227 162.585 80.616V70.184C162.585 70.0773 162.623 69.9867 162.697 69.912C162.772 69.8373 162.863 69.8 162.969 69.8H164.457C164.564 69.8 164.655 69.8373 164.729 69.912C164.804 69.9867 164.841 70.0773 164.841 70.184V79.096H169.913C170.031 79.096 170.127 79.1333 170.201 79.208C170.276 79.2827 170.313 79.3787 170.313 79.496V80.616C170.313 80.7227 170.276 80.8133 170.201 80.888C170.127 80.9627 170.031 81 169.913 81H162.969ZM182.637 81.16C181.645 81.16 180.802 80.9893 180.109 80.648C179.426 80.296 178.903 79.8 178.541 79.16C178.178 78.5093 177.975 77.7307 177.933 76.824C177.922 76.3867 177.917 75.9173 177.917 75.416C177.917 74.9147 177.922 74.4347 177.933 73.976C177.975 73.08 178.178 72.3067 178.541 71.656C178.914 71.0053 179.442 70.5093 180.125 70.168C180.818 69.816 181.655 69.64 182.637 69.64C183.362 69.64 184.013 69.736 184.589 69.928C185.165 70.12 185.655 70.3867 186.061 70.728C186.466 71.0587 186.781 71.448 187.005 71.896C187.229 72.344 187.346 72.8293 187.357 73.352C187.367 73.448 187.335 73.528 187.261 73.592C187.197 73.656 187.117 73.688 187.021 73.688H185.501C185.383 73.688 185.287 73.6613 185.213 73.608C185.138 73.544 185.085 73.4427 185.053 73.304C184.882 72.6 184.589 72.12 184.173 71.864C183.757 71.608 183.239 71.48 182.621 71.48C181.906 71.48 181.335 71.6827 180.909 72.088C180.482 72.4827 180.253 73.1387 180.221 74.056C180.189 74.9307 180.189 75.8267 180.221 76.744C180.253 77.6613 180.482 78.3227 180.909 78.728C181.335 79.1227 181.906 79.32 182.621 79.32C183.239 79.32 183.757 79.192 184.173 78.936C184.589 78.6693 184.882 78.1893 185.053 77.496C185.085 77.3467 185.138 77.2453 185.213 77.192C185.287 77.1387 185.383 77.112 185.501 77.112H187.021C187.117 77.112 187.197 77.144 187.261 77.208C187.335 77.272 187.367 77.352 187.357 77.448C187.346 77.9707 187.229 78.456 187.005 78.904C186.781 79.352 186.466 79.7467 186.061 80.088C185.655 80.4187 185.165 80.68 184.589 80.872C184.013 81.064 183.362 81.16 182.637 81.16ZM190.041 81C189.956 81 189.876 80.968 189.801 80.904C189.737 80.84 189.705 80.76 189.705 80.664C189.705 80.6213 189.716 80.5733 189.737 80.52L193.593 70.2C193.625 70.0933 193.684 70.0027 193.769 69.928C193.865 69.8427 193.993 69.8 194.153 69.8H195.897C196.057 69.8 196.18 69.8427 196.265 69.928C196.351 70.0027 196.415 70.0933 196.457 70.2L200.313 80.52C200.324 80.5733 200.329 80.6213 200.329 80.664C200.329 80.76 200.297 80.84 200.233 80.904C200.169 80.968 200.095 81 200.009 81H198.617C198.468 81 198.356 80.968 198.281 80.904C198.217 80.8293 198.175 80.76 198.153 80.696L197.401 78.744H192.649L191.897 80.696C191.876 80.76 191.828 80.8293 191.753 80.904C191.689 80.968 191.583 81 191.433 81H190.041ZM193.209 76.904H196.841L195.017 71.96L193.209 76.904ZM203.807 81C203.7 81 203.61 80.9627 203.535 80.888C203.46 80.8133 203.423 80.7227 203.423 80.616V70.2C203.423 70.0827 203.46 69.9867 203.535 69.912C203.61 69.8373 203.7 69.8 203.807 69.8H207.951C209.242 69.8 210.26 70.0987 211.007 70.696C211.754 71.2933 212.127 72.1627 212.127 73.304C212.127 74.0933 211.93 74.7493 211.535 75.272C211.151 75.7947 210.634 76.1733 209.983 76.408L212.319 80.488C212.351 80.552 212.367 80.6107 212.367 80.664C212.367 80.76 212.33 80.84 212.255 80.904C212.191 80.968 212.116 81 212.031 81H210.575C210.394 81 210.255 80.952 210.159 80.856C210.063 80.76 209.988 80.664 209.935 80.568L207.871 76.776H205.647V80.616C205.647 80.7227 205.61 80.8133 205.535 80.888C205.471 80.9627 205.38 81 205.263 81H203.807ZM205.647 74.968H207.903C208.554 74.968 209.039 74.824 209.359 74.536C209.679 74.2373 209.839 73.8213 209.839 73.288C209.839 72.7547 209.679 72.3387 209.359 72.04C209.05 71.7307 208.564 71.576 207.903 71.576H205.647V74.968ZM216.173 81C216.066 81 215.975 80.9627 215.901 80.888C215.826 80.8133 215.789 80.7227 215.789 80.616V70.2C215.789 70.0827 215.826 69.9867 215.901 69.912C215.975 69.8373 216.066 69.8 216.173 69.8H223.213C223.33 69.8 223.426 69.8373 223.501 69.912C223.575 69.9867 223.613 70.0827 223.613 70.2V71.256C223.613 71.3627 223.575 71.4533 223.501 71.528C223.426 71.6027 223.33 71.64 223.213 71.64H217.949V74.472H222.861C222.978 74.472 223.074 74.5093 223.149 74.584C223.223 74.648 223.261 74.7387 223.261 74.856V75.848C223.261 75.9653 223.223 76.0613 223.149 76.136C223.074 76.2 222.978 76.232 222.861 76.232H217.949V79.16H223.341C223.458 79.16 223.554 79.1973 223.629 79.272C223.703 79.3467 223.741 79.4427 223.741 79.56V80.616C223.741 80.7227 223.703 80.8133 223.629 80.888C223.554 80.9627 223.458 81 223.341 81H216.173Z" fill="#335EF8"/>
</svg>
